<?xml version="1.0" encoding="UTF-8" standalone="no"?>
<svg
   version="1.1"
   viewBox="-5 -10 128 128"
   id="svg2"
   width="128"
   height="128"
   xmlns="http://www.w3.org/2000/svg"
   xmlns:svg="http://www.w3.org/2000/svg">
  <defs
     id="defs2" />
  <path
     id="path1-9"
     style="fill:#208bfe;fill-opacity:1;fill-rule:evenodd;stroke:none;stroke-width:2.14572"
     d="m 87.422134,-10.000001 c -0.36565,0 -0.73313,0.1914542 -0.92662,0.5679382 l -1.5458,3.010458 c -0.59651,1.158081 -1.53639,2.102229 -2.69447,2.698738 l -3.01473,1.545797 c -0.752962,0.386941 -0.752959,1.46199905 0,1.84897705 l 3.01473,1.54579495 c 1.15808,0.596502 2.09796,1.540653 2.69447,2.698738 l 1.54579,3.010458 c 0.38695,0.752968 1.46627,0.752968 1.85325,0 l 1.5458,-3.010458 c 0.59651,-1.158085 1.53639,-2.102236 2.69446,-2.698738 l 3.01473,-1.54579495 c 0.75298,-0.386944 0.75298,-1.46200105 0,-1.84897705 l -3.01473,-1.545797 c -1.15807,-0.596509 -2.09795,-1.540657 -2.69446,-2.698738 l -1.5458,-3.010458 c -0.19347,-0.376484 -0.56097,-0.5679382 -0.92662,-0.5679382 z m 12.12297,19.4804522 c -0.73131,0 -1.462,0.374353 -1.84898,1.1273138 l -3.09159,6.025187 c -1.19301,2.316156 -3.08132,4.200187 -5.39748,5.393206 l -6.02091,3.095863 c -1.505937,0.773887 -1.505937,2.923993 0,3.697954 l 6.02091,3.091589 c 2.31616,1.193016 4.20447,3.081318 5.39748,5.397477 l 3.09159,6.020918 c 0.77389,1.505937 2.924006,1.505937 3.697956,0 l 3.09586,-6.020918 c 1.19303,-2.316159 3.07705,-4.204463 5.39321,-5.397477 l 6.02518,-3.091589 c 1.50597,-0.773891 1.50597,-2.923996 0,-3.697954 l -6.02518,-3.095863 c -2.31616,-1.193018 -4.20018,-3.07705 -5.39321,-5.393206 l -3.09586,-6.025187 C 101.00714,9.8548042 100.27641,9.4804512 99.545104,9.4804512 Z M 53.43597,13.058834 c -2.193911,0 -4.390262,1.127332 -5.551198,3.386232 L 38.605722,34.51636 C 35.026674,41.464824 29.3703,47.121194 22.421839,50.700245 L 4.3505433,59.979291 c -4.51780106,2.321663 -4.51780106,8.776257 0,11.098132 l 18.0712957,9.279048 c 6.948461,3.57905 12.604835,9.235421 16.183887,16.18388 l 9.279045,18.071299 c 2.321663,4.5178 8.776256,4.5178 11.098132,0 l 9.279044,-18.071299 c 3.579048,-6.948459 9.235425,-12.604838 16.183887,-16.18388 l 18.071306,-9.279048 c 4.5178,-2.321662 4.5178,-8.776259 0,-11.098132 L 84.445834,50.700245 C 77.497372,47.121196 71.840995,41.464826 68.261947,34.51636 L 58.982903,16.445066 c -1.160832,-2.2589 -3.35302,-3.386232 -5.546933,-3.386232 z" />
</svg>
